<?xml version="1.0" standalone="no"?>
<!DOCTYPE svg PUBLIC "-//W3C//DTD SVG 20010904//EN"
 "http://www.w3.org/TR/2001/REC-SVG-20010904/DTD/svg10.dtd">
<svg version="1.0" xmlns="http://www.w3.org/2000/svg"
 width="1500.000000pt" height="1500.000000pt" viewBox="0 0 1500.000000 1500.000000"
 preserveAspectRatio="xMidYMid meet">
<metadata>
Created by potrace 1.10, written by Peter Selinger 2001-2011
</metadata>
<g transform="translate(0.000000,1500.000000) scale(0.100000,-0.100000)"
fill="#000000" stroke="none">
<path d="M6320 14473 c-148 -9 -491 -44 -580 -59 -52 -8 -120 -19 -151 -23
-31 -5 -81 -14 -110 -21 -69 -15 -153 -34 -254 -55 -44 -10 -100 -24 -125 -31
-25 -7 -76 -20 -115 -29 -38 -9 -110 -30 -160 -45 -49 -16 -124 -38 -165 -51
-41 -12 -79 -25 -85 -29 -5 -3 -32 -15 -60 -24 -68 -24 -330 -129 -435 -174
-74 -31 -364 -176 -515 -256 -40 -22 -175 -102 -299 -179 -157 -97 -561 -393
-651 -476 -22 -20 -62 -55 -90 -77 -137 -108 -468 -438 -637 -634 -121 -140
-267 -321 -303 -375 -22 -33 -65 -93 -96 -135 -77 -104 -151 -220 -254 -395
-48 -82 -98 -166 -111 -185 -28 -43 -225 -450 -286 -590 -90 -207 -269 -745
-304 -913 -7 -38 -16 -72 -19 -77 -3 -5 -10 -30 -15 -57 -5 -26 -19 -91 -30
-143 -18 -89 -43 -236 -69 -410 -44 -291 -62 -824 -41 -1152 5 -84 15 -227 21
-318 6 -91 19 -221 29 -290 11 -69 22 -145 25 -170 15 -99 59 -319 100 -490
66 -281 235 -777 335 -987 28 -57 50 -106 50 -109 0 -10 185 -374 222 -439
233 -401 421 -670 708 -1015 134 -161 528 -568 630 -650 23 -19 97 -80 164
-136 354 -294 784 -574 1178 -767 245 -120 407 -197 416 -197 4 0 41 -14 82
-31 210 -85 727 -244 915 -280 442 -86 681 -117 1080 -139 500 -29 1061 10
1570 106 180 35 228 45 375 83 283 73 516 148 706 227 46 19 88 34 94 34 12 0
92 38 397 185 272 132 584 318 867 515 28 20 76 53 106 74 30 21 66 47 80 59
14 12 88 74 165 137 246 200 512 464 739 730 54 63 109 129 124 145 112 130
385 517 518 733 90 147 90 148 161 282 154 291 227 447 303 645 23 61 53 136
66 168 13 32 24 63 24 69 0 5 7 24 15 41 33 74 126 406 185 662 11 50 23 99
25 110 9 34 36 187 45 250 5 33 13 96 20 140 13 94 26 211 41 388 14 158 7
994 -10 1117 -6 47 -20 171 -31 275 -20 181 -30 244 -67 415 -24 117 -99 409
-127 496 -13 44 -39 126 -56 184 -32 105 -120 336 -207 545 -73 177 -267 558
-368 725 -96 158 -217 345 -270 415 -28 39 -69 95 -90 125 -195 282 -620 736
-991 1058 -68 59 -511 391 -565 423 -24 15 -100 63 -169 106 -69 44 -156 97
-195 118 -38 21 -74 41 -80 45 -5 4 -100 53 -210 108 -181 91 -354 168 -520
232 -33 13 -73 29 -90 36 -35 15 -208 81 -245 94 -26 8 -116 36 -230 69 -65
19 -221 57 -355 87 -38 9 -95 23 -126 30 -30 8 -68 14 -83 14 -15 0 -35 4 -45
10 -10 5 -51 14 -92 20 -41 5 -114 17 -164 25 -195 33 -536 56 -855 59 -173 2
-344 2 -380 -1z m131 -703 c4 -14 7 -87 8 -162 1 -75 5 -148 11 -163 9 -25 13
-26 67 -23 56 3 58 2 58 -22 l0 -25 -110 0 -110 0 -7 55 c-3 30 -6 121 -7 202
-1 130 1 148 17 157 29 18 65 9 73 -19z m577 1 c46 -23 76 -61 97 -122 29 -80
15 -152 -42 -218 -63 -75 -167 -104 -262 -75 -113 35 -164 104 -163 221 1 108
62 186 167 214 49 13 159 2 203 -20z m-872 3 c49 -23 90 -75 110 -139 24 -76
10 -149 -41 -211 -48 -59 -110 -85 -202 -87 -66 -1 -75 1 -123 33 -64 44 -91
93 -98 181 -3 52 0 73 16 105 24 47 63 85 117 112 51 27 170 30 221 6z m1411
-49 c51 -21 72 -42 66 -66 -5 -19 -53 -28 -53 -10 0 19 -68 51 -106 51 -82 0
-152 -85 -162 -196 -8 -91 50 -164 129 -164 50 0 63 13 74 76 12 66 27 80 69
65 29 -11 29 -12 24 -82 -3 -42 -11 -77 -20 -85 -41 -41 -218 -23 -291 29 -50
36 -67 59 -85 111 -30 87 27 219 116 266 48 25 185 27 239 5z m-1890 -75 c6
-25 19 -79 28 -120 9 -41 23 -102 31 -136 39 -151 -7 -150 -206 4 -82 63 -133
93 -140 82 -4 -6 -1 -43 7 -83 29 -155 29 -193 -1 -181 -21 8 -27 25 -66 214
-5 25 -16 76 -25 114 -16 76 -10 96 29 96 11 0 85 -45 163 -100 78 -55 147
-100 153 -100 13 0 13 43 -1 95 -16 61 -28 148 -22 157 13 22 38 0 50 -42z
m2145 41 c20 -7 28 -23 43 -88 10 -43 22 -82 25 -86 12 -14 37 3 69 48 18 24
39 51 47 60 19 18 64 20 64 3 0 -7 -36 -52 -79 -100 -63 -69 -82 -97 -95 -141
-9 -30 -16 -65 -16 -77 0 -54 -49 -80 -84 -44 -20 19 -20 23 0 101 17 68 19
50 -31 241 -9 35 -14 70 -11 78 6 16 34 18 68 5z m-2658 -153 c14 -41 50 -150
92 -282 l18 -58 -23 -19 c-49 -40 -76 -18 -105 82 -23 80 -30 84 -112 57 -48
-16 -70 -29 -72 -42 -2 -10 6 -50 19 -88 26 -81 20 -101 -31 -106 -40 -4 -42
-1 -76 108 -14 47 -40 126 -57 177 -35 107 -30 126 32 121 34 -3 37 -6 56 -61
11 -32 27 -62 35 -67 21 -11 120 15 143 38 17 18 17 21 2 63 -31 83 -31 88 6
104 50 21 56 19 73 -27z m3295 -27 c86 -30 118 -51 107 -70 -10 -15 -37 -14
-81 4 -28 12 -40 13 -51 4 -12 -9 -34 -69 -34 -91 0 -3 25 -18 55 -32 56 -25
61 -31 47 -54 -7 -10 -19 -9 -60 4 -76 25 -78 22 -98 -92 -5 -25 -2 -32 21
-42 14 -7 32 -12 39 -12 6 0 20 -6 30 -13 19 -14 12 -47 -10 -47 -33 0 -204
65 -204 78 0 8 57 186 70 217 4 11 16 47 26 80 17 56 39 95 53 95 3 0 44 -13
90 -29z m-3788 -81 c23 -13 26 -60 3 -60 -8 0 -24 5 -35 10 -13 8 -31 7 -60
-1 -87 -27 -114 -126 -63 -234 37 -78 82 -115 140 -115 50 0 70 8 110 45 15
14 33 25 40 25 26 0 14 -39 -18 -63 -62 -45 -109 -61 -185 -61 -64 0 -77 3
-114 29 -77 54 -114 161 -89 254 12 47 81 124 127 143 103 41 114 43 144 28z
m4057 -19 c9 -4 33 -15 52 -23 121 -52 144 -65 170 -95 57 -65 59 -141 5 -236
-47 -85 -136 -126 -228 -106 -58 13 -168 59 -191 80 -18 17 -17 21 38 144 31
70 56 130 56 134 0 11 37 95 46 104 10 9 30 9 52 -2z m-4450 -179 c3 -18 -5
-26 -40 -41 -63 -27 -71 -40 -53 -84 22 -54 42 -60 97 -30 26 14 54 23 62 20
29 -12 16 -37 -31 -59 -63 -31 -72 -47 -47 -93 10 -20 27 -44 37 -53 17 -15
21 -15 60 6 55 29 90 29 85 1 -4 -27 -168 -114 -197 -104 -24 7 -184 327 -179
359 2 15 26 32 88 63 93 47 113 49 118 15z m4934 -29 c10 -9 18 -21 18 -27 0
-6 -27 -65 -61 -131 -67 -131 -75 -174 -43 -217 24 -33 55 -48 99 -48 49 0 98
54 159 173 51 101 68 123 86 112 21 -13 9 -47 -57 -165 -80 -144 -99 -160
-195 -160 -57 0 -70 4 -111 33 -97 69 -115 132 -66 232 31 62 99 186 112 203
13 17 37 15 59 -5z m-5224 -105 c18 -18 15 -24 -28 -43 -27 -12 -40 -24 -40
-38 0 -10 27 -64 60 -119 33 -54 60 -101 60 -104 0 -3 9 -17 20 -31 11 -14 20
-36 20 -48 0 -25 -44 -60 -64 -52 -8 3 -50 69 -96 146 -45 77 -88 145 -95 151
-10 8 -24 6 -56 -10 -34 -18 -43 -19 -50 -8 -5 7 -9 16 -9 20 0 4 43 33 95 63
157 93 162 94 183 73z m3302 -102 c233 -33 370 -59 540 -104 52 -13 109 -28
125 -32 17 -4 40 -12 52 -18 12 -7 31 -12 42 -12 11 0 35 -6 53 -14 18 -7 78
-28 133 -45 223 -72 495 -192 750 -331 78 -42 131 -73 170 -97 11 -7 40 -25
65 -39 192 -115 489 -336 675 -504 187 -169 248 -232 487 -501 23 -27 185
-237 240 -313 20 -28 70 -104 110 -169 40 -65 81 -130 90 -145 10 -15 22 -36
28 -47 6 -11 20 -36 32 -55 33 -54 150 -288 181 -360 15 -36 32 -72 37 -81 40
-74 170 -417 170 -449 0 -8 7 -28 15 -44 8 -15 15 -36 15 -45 0 -9 7 -38 16
-66 30 -94 37 -120 45 -155 4 -19 16 -69 27 -110 28 -104 58 -272 77 -420 9
-69 20 -152 26 -185 22 -130 32 -471 21 -689 -6 -116 -16 -236 -21 -266 -6
-30 -20 -122 -31 -205 -29 -207 -73 -419 -118 -566 -5 -19 -17 -59 -26 -89
-39 -140 -124 -397 -151 -455 -7 -16 -30 -68 -50 -115 -64 -145 -181 -381
-234 -470 -28 -47 -60 -103 -72 -125 -40 -74 -187 -289 -291 -426 -172 -227
-341 -411 -615 -669 -84 -79 -300 -255 -385 -314 -35 -23 -106 -72 -158 -108
-138 -95 -202 -133 -405 -243 -175 -95 -341 -175 -431 -209 -22 -7 -70 -25
-109 -39 -38 -15 -95 -36 -125 -47 -197 -75 -368 -126 -555 -164 -432 -90
-521 -99 -1040 -104 -253 -2 -452 1 -500 7 -266 34 -408 54 -465 66 -36 8
-101 21 -145 30 -114 24 -271 63 -319 81 -23 9 -54 19 -71 24 -16 4 -55 18
-85 30 -30 11 -82 30 -115 41 -57 19 -88 31 -290 114 -130 54 -384 186 -559
292 -90 55 -367 241 -376 253 -3 4 -21 17 -40 31 -106 72 -414 344 -546 481
-263 273 -485 563 -667 868 -116 193 -132 223 -221 405 -78 160 -95 198 -131
295 -8 22 -22 59 -31 83 -9 23 -21 56 -28 72 -43 102 -120 350 -155 500 -7 28
-17 68 -23 90 -6 22 -14 63 -18 90 -5 28 -20 117 -34 199 -14 83 -26 173 -26
200 0 28 -7 86 -15 129 -21 111 -21 795 0 912 8 44 15 99 15 123 0 24 7 80 15
125 8 45 21 127 30 182 9 55 21 118 27 140 6 22 14 58 18 80 22 118 121 458
141 480 5 5 9 17 9 27 0 9 7 34 16 55 9 21 22 52 29 68 7 17 20 47 29 68 9 21
16 42 16 47 0 5 12 35 26 67 61 134 129 279 136 289 4 6 23 40 42 76 75 144
164 294 235 398 25 36 65 94 89 130 256 373 612 737 1032 1057 80 61 174 129
210 151 146 93 406 246 478 282 243 122 450 213 582 255 47 15 101 33 120 40
19 7 62 21 95 30 33 10 78 24 100 30 41 13 120 36 190 55 174 47 490 97 685
110 217 14 958 4 1090 -14z m2437 -92 c49 -17 127 -70 150 -104 18 -25 9 -56
-17 -63 -16 -4 -24 4 -40 39 -66 150 -292 39 -294 -145 -1 -50 1 -55 42 -91
23 -21 58 -41 77 -44 27 -5 35 -12 35 -28 0 -18 -4 -20 -34 -15 -112 18 -216
132 -216 237 0 111 113 225 227 229 12 1 44 -6 70 -15z m-6133 -261 c63 -85
112 -161 109 -169 -11 -31 -50 -29 -228 11 -97 22 -162 28 -169 16 -4 -6 25
-54 64 -107 71 -95 83 -129 45 -129 -24 0 -257 307 -249 328 11 30 47 35 130
20 43 -7 105 -18 136 -24 32 -5 69 -14 84 -19 14 -6 32 -6 40 -2 11 6 -1 28
-56 102 -69 92 -83 124 -57 133 24 8 38 -7 151 -160z m6535 -17 c14 -17 12
-27 -45 -231 -65 -228 -70 -236 -121 -187 l-31 28 17 63 16 63 -30 24 c-16 14
-43 32 -58 40 -27 14 -31 13 -79 -16 -53 -33 -78 -33 -78 -1 0 15 26 35 103
77 56 32 138 79 182 106 85 51 105 57 124 34z m304 -252 c59 -53 107 -102 107
-110 0 -27 -30 -27 -59 0 -15 14 -35 26 -44 26 -9 0 -67 -56 -129 -125 -61
-69 -118 -125 -127 -125 -22 0 -51 30 -51 53 0 11 42 65 98 124 53 58 105 116
116 129 18 24 18 25 -19 59 -37 33 -43 65 -12 65 7 0 61 -43 120 -96z m-7270
28 c60 -42 97 -111 97 -182 0 -114 -104 -228 -227 -251 -107 -20 -243 99 -243
214 0 87 64 184 156 235 61 34 154 27 217 -16z m7484 -244 c13 -12 23 -27 23
-33 0 -13 -278 -285 -290 -285 -4 0 -18 8 -30 18 -18 14 -21 24 -15 43 7 23
264 279 280 279 5 0 19 -10 32 -22z m-7854 -213 c126 -122 137 -136 127 -155
-6 -11 -22 -26 -35 -32 -21 -10 -34 0 -164 128 -78 76 -141 143 -141 148 0 18
33 46 54 46 13 -1 73 -51 159 -135z m8022 26 c58 -22 126 -85 155 -145 39 -82
18 -181 -54 -244 -97 -85 -203 -82 -308 7 -66 57 -88 104 -88 185 0 57 4 69
33 107 39 51 71 76 123 94 53 19 80 18 139 -4z m-8301 -7 c23 -9 20 -30 -9
-52 -42 -33 -32 -54 62 -133 168 -143 169 -143 158 -176 -18 -51 -51 -43 -139
34 -44 37 -103 88 -133 111 l-53 44 -33 -36 c-19 -20 -39 -36 -46 -36 -21 0
-24 29 -4 53 26 33 124 147 150 174 24 25 25 26 47 17z m8658 -389 c9 -20 5
-53 -21 -172 -31 -145 -37 -193 -25 -193 9 0 162 109 169 120 8 13 52 13 60
-1 11 -17 -30 -54 -169 -152 -160 -113 -151 -108 -169 -101 -28 10 -26 48 10
211 19 89 33 169 30 177 -5 12 -30 -1 -113 -61 -101 -73 -107 -76 -120 -58 -8
10 -14 22 -14 26 0 3 51 43 113 87 61 45 130 95 152 111 50 38 81 40 97 6z
m-8922 -36 c41 -11 91 -24 110 -28 19 -4 45 -13 57 -19 12 -7 32 -12 44 -12
12 0 46 -8 76 -17 62 -19 67 -36 23 -78 l-29 -28 -43 16 c-62 24 -81 21 -109
-15 -46 -61 -49 -70 -32 -103 9 -16 22 -38 30 -47 18 -21 13 -62 -8 -66 -12
-2 -46 48 -122 176 -58 98 -106 185 -108 193 -3 20 11 49 25 49 6 0 45 -10 86
-21z m-139 -327 c68 -32 145 -67 171 -78 39 -15 48 -24 48 -43 0 -25 -25 -61
-42 -61 -5 0 -46 18 -91 39 -136 65 -153 63 -102 -13 14 -20 25 -38 25 -40 0
-2 18 -31 41 -65 35 -52 39 -64 28 -77 -10 -13 -24 -15 -64 -10 -27 4 -83 9
-122 13 -63 5 -73 3 -73 -11 0 -9 30 -37 67 -64 108 -77 109 -78 97 -98 -6
-10 -15 -19 -20 -21 -6 -2 -46 27 -90 64 -43 38 -111 94 -151 126 -79 64 -88
77 -69 102 13 18 41 18 232 -1 42 -4 64 -3 69 6 6 10 -87 179 -123 222 -22 26
-8 68 22 68 13 0 80 -26 147 -58z m9445 -210 c32 -26 74 -94 74 -119 0 -22
-37 -56 -52 -47 -4 3 -7 23 -6 44 2 69 -56 105 -97 60 -15 -16 -17 -32 -13
-89 9 -119 -34 -181 -123 -181 -60 0 -115 39 -147 104 -27 53 -24 91 8 99 25
6 35 -9 32 -48 -3 -40 31 -95 60 -95 12 0 32 10 45 22 20 19 23 31 23 105 0
92 12 123 59 148 37 20 111 18 137 -3z m199 -368 c30 -63 55 -121 55 -129 0
-27 -48 -18 -62 13 -7 15 -23 28 -35 30 -12 2 -86 -29 -164 -67 l-143 -71 -24
22 c-44 42 -29 56 141 140 86 42 157 82 157 87 0 6 -9 27 -21 48 -20 35 -20
38 -3 50 26 19 37 5 99 -123z m-9964 97 c19 -19 29 -40 29 -59 0 -49 15 -54
124 -41 59 8 100 9 106 3 6 -6 0 -25 -13 -49 l-23 -40 -89 -10 c-51 -6 -90
-15 -92 -22 -3 -6 21 -24 51 -38 68 -32 79 -49 59 -88 -12 -24 -19 -28 -41
-22 -44 11 -336 161 -346 179 -12 18 38 122 87 182 25 30 34 34 73 34 37 0 51
-6 75 -29z m-83 -357 c35 -17 63 -41 83 -70 28 -41 31 -52 30 -123 -1 -208
-156 -318 -322 -230 -95 51 -133 136 -109 247 36 169 176 247 318 176z m10168
-19 c8 -13 14 -32 12 -41 -3 -14 -70 -45 -233 -107 -52 -20 -85 -62 -85 -108
0 -33 6 -47 34 -75 49 -49 105 -45 249 20 81 36 125 43 133 21 9 -24 -11 -38
-96 -71 -41 -15 -79 -31 -85 -34 -21 -14 -135 -32 -160 -26 -15 4 -44 25 -65
47 -88 93 -92 237 -8 289 43 26 250 109 275 110 7 0 20 -11 29 -25z m-10541
-464 c3 -10 -2 -35 -11 -54 -21 -44 -14 -64 31 -83 46 -19 68 -7 83 44 13 43
35 67 52 57 13 -8 13 -31 -2 -72 -18 -48 -4 -64 83 -93 69 -23 74 -27 77 -56
5 -47 -18 -65 -65 -52 -64 16 -235 68 -283 85 -75 27 -75 28 -45 129 15 49 32
95 37 102 15 18 36 15 43 -7z m10730 -48 c9 -32 23 -76 31 -98 23 -66 18 -148
-11 -195 -37 -59 -93 -84 -186 -85 -66 0 -81 3 -117 28 -57 37 -93 108 -123
247 -12 57 -5 63 96 90 99 27 171 47 210 59 17 5 42 10 57 10 25 1 29 -4 43
-56z m-10730 -302 c85 -18 139 -30 228 -53 40 -10 56 -31 41 -55 -5 -8 -38
-31 -74 -50 -143 -79 -235 -139 -235 -153 0 -9 14 -18 35 -23 189 -42 195 -44
198 -62 7 -33 -13 -38 -80 -22 -35 8 -99 23 -143 33 -138 29 -168 39 -179 56
-15 25 17 63 84 100 30 16 60 34 65 38 6 4 33 20 60 35 60 33 87 55 82 68 -3
10 -135 46 -173 47 -30 0 -58 24 -51 44 8 20 30 20 142 -3z m10844 -148 c5
-10 17 -57 27 -105 14 -66 15 -91 7 -99 -18 -18 -43 -2 -43 26 0 14 -7 42 -15
62 -14 33 -17 35 -51 30 -58 -10 -65 -21 -58 -93 6 -60 6 -64 -14 -64 -21 0
-26 10 -38 73 -8 45 -32 61 -69 47 -14 -5 -40 -10 -56 -10 -37 0 -45 -18 -30
-73 18 -65 18 -72 -6 -75 -27 -4 -39 18 -52 94 -5 32 -12 71 -16 86 -8 32 11
45 88 59 29 5 104 20 167 33 142 30 147 30 159 9z m-10983 -338 c96 -11 294
-44 304 -50 16 -10 12 -52 -6 -70 -11 -10 -26 -14 -43 -11 -14 3 -89 15 -166
26 -178 26 -192 29 -198 44 -8 20 21 79 36 73 8 -3 40 -8 73 -12z m11035 -5
c35 -19 22 -53 -57 -146 -42 -49 -92 -105 -110 -124 -54 -57 -47 -64 49 -57
45 4 98 9 119 13 30 5 38 3 47 -14 19 -36 8 -38 -312 -73 -49 -5 -93 -6 -99
-3 -23 14 4 71 61 129 71 74 161 183 161 196 0 19 -31 21 -133 5 -126 -20
-155 -14 -124 27 9 12 41 19 117 28 58 6 132 14 165 19 89 11 95 11 116 0z
m-11145 -426 c0 -33 4 -65 8 -72 4 -7 29 -12 56 -12 57 0 73 17 68 78 -3 32 0
37 21 40 23 4 24 2 18 -45 -4 -26 -3 -54 1 -61 11 -17 67 -32 120 -32 24 0 52
-5 63 -10 25 -14 26 -66 1 -79 -16 -9 -183 0 -342 17 l-65 7 1 92 c2 115 9
145 32 141 14 -3 17 -15 18 -64z m11219 -185 c6 -115 5 -137 -9 -148 -23 -19
-36 -4 -36 44 0 25 -5 45 -12 48 -7 2 -42 3 -78 1 -290 -12 -300 -11 -300 41
0 39 12 42 180 50 91 4 173 11 183 16 12 7 17 22 17 54 0 45 15 62 36 41 7 -6
15 -67 19 -147z m-11004 -100 c131 -40 201 -218 135 -347 -42 -82 -95 -112
-201 -112 -77 0 -128 22 -170 72 -46 54 -57 93 -53 182 3 71 7 86 33 123 26
36 78 72 125 87 28 9 93 6 131 -5z m10886 -303 c41 -21 99 -86 112 -125 22
-68 9 -204 -24 -231 -8 -6 -23 -9 -35 -5 -16 5 -19 12 -14 28 4 12 13 27 20
34 18 19 26 72 16 108 -13 46 -79 91 -146 99 -98 13 -165 -13 -197 -76 -23
-46 -24 -67 -2 -113 13 -27 14 -38 5 -47 -10 -10 -17 -7 -35 10 -19 20 -22 32
-21 105 1 90 12 122 63 173 52 52 87 66 163 60 36 -3 79 -11 95 -20z m-10698
-474 c11 -75 12 -105 4 -113 -7 -7 -53 -15 -104 -20 -51 -5 -117 -14 -148 -20
-31 -6 -81 -9 -111 -7 l-55 3 -6 60 c-3 33 -10 81 -14 107 -6 40 -5 49 9 54
25 10 38 -8 43 -63 7 -61 17 -73 63 -73 53 0 63 16 54 89 -6 60 -6 61 18 61
22 0 25 -5 34 -62 l9 -63 65 3 c87 5 92 10 84 89 -7 64 -7 65 17 61 22 -3 25
-10 38 -106z m10682 14 c63 -47 89 -102 89 -192 0 -168 -115 -264 -277 -232
-135 27 -210 182 -156 320 20 53 44 84 85 115 28 20 43 23 122 23 87 0 93 -2
137 -34z m-10679 -258 c9 -7 26 -38 37 -68 28 -73 30 -233 4 -270 -48 -69 -93
-90 -193 -90 -81 0 -128 23 -176 85 -44 58 -69 228 -39 259 24 24 41 15 37
-20 -2 -16 -4 -55 -5 -87 -1 -54 1 -60 36 -94 34 -35 42 -38 106 -41 83 -5
135 10 178 51 35 32 49 86 38 137 -10 44 -39 55 -106 41 -48 -11 -55 -10 -67
6 -16 23 -12 64 8 74 8 4 38 12 65 17 28 5 53 10 56 11 3 0 13 -5 21 -11z
m10541 -279 c67 -16 129 -37 136 -44 21 -20 3 -69 -26 -73 -12 -2 -77 11 -144
27 -67 17 -130 31 -141 31 -37 0 -78 -33 -95 -78 -16 -42 -16 -46 2 -78 10
-18 28 -40 40 -48 22 -15 166 -57 234 -70 56 -10 83 -48 43 -60 -20 -7 -238
46 -288 70 -115 55 -115 238 0 329 42 33 89 32 239 -6z m-10416 -181 c5 -7 20
-52 33 -100 27 -102 24 -110 -48 -127 -68 -17 -159 -43 -276 -81 -32 -10 -41
-10 -53 3 -19 19 -65 176 -57 199 10 33 32 19 50 -33 26 -71 36 -77 90 -51 48
24 52 35 30 87 -12 29 -13 35 0 46 21 17 40 4 48 -32 13 -67 53 -80 130 -42
25 13 27 18 21 46 -19 91 -19 97 2 97 12 0 25 -6 30 -12z m10226 -284 c191
-71 197 -74 197 -100 0 -29 -22 -44 -139 -94 -53 -23 -104 -45 -113 -51 -10
-5 -23 -9 -30 -9 -13 0 -48 -29 -48 -41 0 -4 50 -24 110 -44 100 -33 110 -39
110 -61 0 -34 -19 -32 -187 26 -193 67 -198 69 -198 104 0 27 6 31 142 86 171
69 201 86 182 105 -8 7 -58 27 -111 45 -102 34 -124 49 -114 76 8 22 47 14
199 -42z m-10137 -15 c11 -18 64 -173 64 -187 0 -7 -12 -17 -27 -22 -16 -6
-37 -15 -48 -20 -11 -5 -47 -18 -80 -29 -33 -11 -96 -33 -141 -49 -44 -17 -85
-27 -90 -24 -10 7 -34 57 -34 71 0 12 145 68 286 112 51 15 59 31 39 83 -10
25 -15 52 -12 61 7 17 33 20 43 4z m98 -275 c9 -8 16 -20 16 -25 0 -6 14 -37
30 -71 40 -79 39 -102 -2 -118 -18 -7 -51 -21 -73 -30 -124 -55 -239 -100
-255 -100 -19 0 -50 35 -50 57 0 14 41 34 204 100 65 26 121 54 123 60 3 7 -7
36 -21 64 -21 40 -25 54 -15 65 15 18 24 18 43 -2z m9894 -169 c64 -34 76 -44
101 -90 15 -28 21 -58 21 -101 0 -72 -13 -113 -52 -172 -24 -35 -35 -43 -56
-40 -39 4 -39 32 1 57 40 24 57 58 57 110 0 79 -122 171 -227 171 -41 0 -51
-5 -83 -39 -35 -37 -50 -74 -50 -128 0 -32 -34 -27 -38 6 -9 62 45 164 117
218 37 29 50 33 102 33 44 0 72 -6 107 -25z m-9755 -201 c59 -42 114 -127 122
-190 13 -97 -23 -168 -111 -219 -151 -89 -344 40 -344 230 0 52 5 73 25 104
48 76 117 112 208 108 44 -3 67 -10 100 -33z m9479 -173 c266 -139 256 -132
236 -176 -15 -33 -50 -32 -108 1 -25 14 -90 49 -145 76 -112 57 -135 74 -135
97 0 16 26 61 35 61 2 0 55 -27 117 -59z m-22 -237 c170 -102 185 -119 141
-158 -23 -21 -19 -22 -196 84 -65 38 -125 70 -135 70 -11 0 -25 -17 -39 -49
-23 -56 -32 -64 -55 -55 -29 11 -24 24 59 162 23 38 27 42 45 42 11 0 92 -43
180 -96z m-9185 -35 c130 -144 84 -333 -93 -385 -91 -27 -171 2 -235 86 -68
90 -83 141 -47 160 29 15 40 5 40 -37 0 -71 62 -133 132 -133 72 1 187 80 208
145 17 51 -4 108 -57 154 -24 21 -43 41 -43 45 0 3 13 6 29 6 21 0 39 -11 66
-41z m8862 -451 c18 -13 38 -35 44 -51 26 -61 -43 -147 -118 -147 -26 0 -43 8
-69 34 -29 29 -34 41 -34 81 0 38 5 52 29 76 38 37 99 40 148 7z m-8552 -220
c15 -12 34 -36 41 -55 12 -28 12 -38 0 -68 -18 -42 -68 -75 -115 -75 -43 0
-111 64 -111 104 0 35 24 81 52 100 33 23 100 20 133 -6z m8149 -170 c23 -24
69 -67 100 -97 52 -49 57 -56 47 -77 -10 -23 -14 -24 -145 -24 -74 0 -137 -4
-141 -9 -3 -5 24 -35 60 -67 36 -32 65 -61 65 -66 0 -23 -46 -2 -97 46 -32 29
-73 66 -90 81 -20 16 -33 36 -33 50 0 18 8 25 43 33 23 6 71 9 107 6 80 -5
120 3 120 22 0 9 -23 37 -52 63 -37 34 -50 52 -45 64 9 24 12 22 61 -25z
m-7747 -265 c73 -76 78 -100 34 -144 -37 -36 -69 -37 -126 -3 l-44 25 -39 -35
c-22 -20 -43 -36 -47 -36 -12 0 -45 32 -45 43 0 5 43 54 96 108 108 110 107
109 171 42z m7501 -68 c69 -30 133 -61 141 -70 14 -13 13 -17 -7 -37 -19 -20
-25 -21 -55 -10 -52 19 -73 15 -101 -19 -27 -32 -33 -54 -16 -64 15 -9 12 -65
-3 -65 -13 0 -28 28 -61 118 -8 20 -23 60 -35 89 -28 69 -28 113 1 113 5 0 66
-25 136 -55z m-7343 -79 c19 -13 18 -15 -8 -53 -34 -50 -34 -60 5 -100 41 -43
75 -43 109 -2 22 28 28 30 47 20 41 -22 33 -37 -85 -167 -48 -54 -73 -74 -87
-72 -35 5 -31 42 8 86 20 22 36 45 36 53 0 19 -71 89 -91 89 -10 0 -34 -20
-55 -45 -20 -25 -44 -45 -54 -45 -20 0 -44 24 -38 39 8 24 175 211 188 211 3
0 15 -6 25 -14z m7135 -127 c36 -44 73 -91 83 -103 19 -23 15 -51 -9 -60 -8
-3 -40 1 -71 9 -63 17 -193 20 -193 6 0 -5 23 -36 50 -68 48 -56 58 -82 34
-90 -13 -4 -35 18 -123 125 -34 40 -61 82 -61 92 0 29 40 35 140 22 116 -16
130 -15 130 4 0 9 -18 38 -40 64 -22 26 -40 55 -40 64 0 36 39 11 100 -65z
m-6859 -99 c10 -6 19 -16 19 -23 0 -14 -74 -114 -161 -220 -12 -15 -49 3 -49
24 0 17 75 128 100 149 3 3 19 22 34 43 32 42 30 41 57 27z m6572 -155 c85
-113 96 -150 46 -150 -22 0 -40 18 -103 103 -78 105 -85 119 -64 140 25 25 45
9 121 -93z m-6426 22 c6 -13 16 -59 23 -103 21 -142 36 -154 89 -69 34 53 53
66 66 44 13 -20 -139 -232 -163 -227 -18 3 -38 70 -52 166 -4 35 -16 72 -25
82 -17 18 -19 17 -60 -43 -42 -61 -68 -80 -77 -55 -3 7 29 61 70 121 80 114
107 132 129 84z m6206 -21 c7 -18 -10 -33 -43 -38 -29 -4 -38 -31 -19 -55 11
-12 26 -14 75 -10 61 6 108 -8 126 -36 17 -27 8 -95 -17 -125 -42 -50 -115
-68 -115 -27 0 11 11 15 38 15 46 0 74 25 65 58 -6 26 -24 31 -118 34 -67 3
-70 4 -92 37 -33 48 -29 69 22 118 47 45 69 53 78 29z m-231 -188 c154 -108
209 -151 205 -162 -2 -6 -15 -17 -28 -25 -23 -13 -29 -11 -66 13 -40 26 -42
27 -72 12 -40 -21 -54 -49 -46 -95 5 -29 3 -40 -9 -44 -8 -3 -18 -2 -21 2 -13
21 -47 290 -39 314 8 24 23 21 76 -15z m-5658 5 c3 -10 2 -56 -3 -103 -5 -47
-7 -88 -4 -92 7 -13 36 -8 65 10 166 105 190 95 119 -50 -22 -46 -43 -95 -46
-110 -12 -49 -55 -63 -79 -26 -8 14 -4 30 17 73 45 91 32 108 -41 55 -23 -16
-45 -30 -49 -30 -3 0 -14 -7 -24 -16 -30 -27 -39 -8 -39 82 0 100 -8 105 -63
34 -24 -32 -43 -47 -52 -43 -24 9 -18 23 33 82 26 31 64 77 85 104 39 48 72
60 81 30z m5426 -138 c0 -9 -9 -15 -25 -15 -39 0 -99 -35 -113 -65 -27 -59 -3
-142 51 -180 28 -19 87 -19 115 1 25 17 28 47 7 84 -12 22 -11 27 2 43 9 9 21
17 28 17 17 0 43 -32 56 -69 10 -29 9 -35 -12 -57 -32 -35 -136 -84 -176 -84
-49 0 -97 23 -123 60 -24 34 -37 102 -26 144 9 35 61 93 105 116 45 24 111 27
111 5z m-5003 -86 c7 -7 9 -56 6 -142 -5 -168 -7 -177 -37 -177 -31 0 -51 25
-48 60 3 36 -41 90 -72 90 -13 0 -35 -11 -50 -25 -15 -14 -34 -25 -42 -25 -22
0 -16 36 10 57 13 10 65 53 116 96 50 42 95 77 99 77 4 0 12 -5 18 -11z m4685
-56 c17 -20 109 -220 111 -243 3 -25 -55 -23 -114 4 -124 57 -169 69 -169 44
0 -7 11 -37 25 -66 26 -56 31 -87 16 -96 -12 -8 -35 21 -60 79 -13 28 -34 74
-47 103 -48 101 -22 111 137 52 62 -22 114 -38 117 -35 3 2 -7 33 -21 67 -38
88 -35 137 5 91z m-4353 -97 c13 -15 7 -54 -14 -96 -52 -105 -56 -135 -21
-173 48 -52 107 -41 138 26 9 17 29 62 47 100 33 72 61 89 61 38 0 -17 -4 -32
-8 -35 -5 -3 -21 -37 -36 -75 -30 -77 -64 -112 -105 -109 -15 1 -32 -1 -38 -5
-6 -4 -14 -3 -18 3 -3 5 -16 10 -29 10 -30 0 -92 61 -101 98 -6 28 11 82 59
195 17 39 44 49 65 23z m3977 -133 c112 -118 144 -154 144 -163 0 -5 -11 -17
-25 -26 -25 -17 -27 -16 -58 15 -57 54 -127 31 -133 -44 -4 -48 -19 -65 -39
-44 -12 11 -13 22 -5 49 6 19 10 85 10 146 0 61 3 114 7 117 18 18 50 2 99
-50z m-3635 1 c8 -9 37 -62 65 -118 28 -55 54 -101 58 -101 8 0 33 61 44 109
8 33 36 56 51 41 9 -9 -15 -95 -65 -233 -26 -70 -49 -57 -109 64 -27 55 -54
106 -58 113 -15 21 -35 -6 -53 -70 -18 -65 -38 -89 -56 -71 -12 12 5 81 38
160 8 18 14 36 14 41 0 5 7 25 15 45 16 39 35 45 56 20z m3386 -36 c48 -45 23
-120 -51 -148 -28 -10 -28 -12 -21 -58 13 -85 13 -87 -19 -87 -31 0 -30 -1
-89 178 -25 78 -25 79 -6 98 10 10 31 19 47 19 15 0 34 5 42 10 26 17 73 11
97 -12z m-3029 -56 c10 -7 6 -36 -21 -137 -34 -128 -48 -154 -81 -142 -18 7
-21 36 -7 81 5 17 17 60 26 96 10 36 21 75 26 88 9 22 33 28 57 14z m150 -38
c16 -11 22 -25 22 -52 0 -49 23 -135 37 -139 6 -2 27 22 48 54 43 65 74 103
87 103 22 0 2 -51 -42 -105 -27 -33 -63 -84 -80 -112 -23 -41 -36 -53 -55 -53
-17 0 -26 7 -29 23 -9 41 -25 132 -31 182 -4 28 -11 58 -16 67 -22 41 17 62
59 32z m2470 -6 c-3 -7 -15 -15 -29 -16 -33 -5 -49 -20 -49 -47 0 -30 24 -49
54 -41 26 6 56 -1 56 -14 0 -4 -19 -10 -41 -14 l-42 -7 6 -69 c5 -55 3 -73 -9
-85 -31 -31 -44 -15 -68 80 -9 39 -22 88 -27 111 -17 67 -10 87 36 100 55 17
118 18 113 2z m-2055 -70 c40 -15 28 -34 -21 -30 -32 3 -43 -1 -51 -17 -20
-36 -12 -52 34 -72 59 -26 59 -43 1 -35 -38 6 -46 4 -55 -13 -15 -27 -14 -66
2 -78 6 -6 24 -13 38 -17 15 -3 30 -13 33 -22 5 -14 -2 -15 -66 -9 -106 10
-106 9 -80 166 12 76 26 136 34 141 15 9 90 1 131 -14z m1781 0 c19 -13 44
-42 55 -66 60 -123 -27 -231 -189 -232 -120 -1 -191 140 -120 238 34 47 59 63
115 73 74 12 105 9 139 -13z m-1506 -60 c33 -32 30 -80 -8 -111 -36 -31 -37
-49 -5 -106 32 -55 33 -75 3 -67 -13 3 -30 6 -39 6 -8 0 -25 20 -37 45 -21 43
-52 61 -52 30 0 -32 -23 -65 -46 -65 -13 0 -26 5 -29 10 -6 10 20 250 31 279
8 23 153 6 182 -21z m235 13 c13 -5 27 -17 30 -26 9 -22 -23 -33 -35 -12 -12
22 -36 22 -60 0 -28 -26 -22 -39 42 -88 67 -52 80 -81 58 -129 -31 -64 -178
-79 -186 -18 -4 26 15 29 44 7 37 -28 84 -13 84 27 0 10 -25 36 -56 58 -71 53
-83 79 -61 126 25 51 86 75 140 55z m483 -15 c24 -18 11 -33 -31 -38 l-30 -3
-5 -130 -5 -130 -30 0 c-29 0 -30 1 -28 45 2 25 -3 83 -10 130 -11 79 -14 85
-37 88 -46 5 -54 11 -40 27 8 10 38 15 93 18 45 1 87 4 93 5 5 1 19 -4 30 -12z
m294 0 c0 -8 -13 -41 -30 -74 -25 -51 -30 -73 -30 -136 0 -66 -3 -77 -21 -86
-31 -17 -49 4 -49 57 0 47 -14 80 -67 157 -36 53 -41 74 -18 82 32 13 61 -5
84 -51 18 -36 28 -45 44 -43 14 2 23 13 27 33 4 17 13 40 21 53 15 25 39 30
39 8z m-585 -156 l0 -145 -35 0 -35 0 3 140 c2 77 6 144 9 148 3 5 17 7 31 5
l27 -3 0 -145z"/>
<path d="M6850 13742 c-55 -27 -82 -86 -83 -182 0 -68 3 -84 24 -114 45 -66
135 -72 187 -11 40 45 59 137 43 209 -13 56 -38 88 -84 105 -38 15 -46 14 -87
-7z"/>
<path d="M5970 13728 c-40 -27 -58 -73 -59 -147 -2 -106 42 -183 111 -196 86
-16 148 58 148 175 0 142 -107 231 -200 168z"/>
<path d="M8737 13313 c-8 -16 -18 -39 -22 -53 -8 -26 -45 -112 -72 -165 -31
-62 5 -99 90 -92 60 5 90 31 128 112 48 100 34 171 -41 210 -43 22 -68 19 -83
-12z"/>
<path d="M6520 12744 c-19 -2 -98 -8 -175 -14 -253 -19 -369 -30 -430 -40
-251 -42 -317 -55 -445 -86 -172 -43 -361 -103 -475 -153 -11 -5 -38 -15 -60
-24 -154 -59 -380 -161 -445 -202 -19 -12 -64 -37 -100 -56 -36 -18 -85 -47
-110 -64 -25 -17 -72 -46 -105 -65 -61 -34 -386 -267 -440 -315 -16 -14 -75
-64 -130 -110 -112 -94 -367 -350 -436 -436 -24 -31 -87 -109 -140 -175 -53
-65 -147 -195 -210 -289 -134 -198 -180 -279 -314 -545 -113 -224 -219 -507
-310 -825 -9 -33 -22 -76 -28 -95 -6 -19 -14 -53 -17 -75 -4 -22 -14 -74 -23
-115 -28 -138 -57 -349 -57 -419 0 -32 25 -48 97 -61 37 -6 82 -20 100 -31 37
-23 89 -79 97 -106 12 -39 25 -42 451 -109 243 -38 214 -38 270 0 74 50 125
61 188 41 28 -9 65 -27 82 -41 37 -28 46 -29 106 -10 24 8 69 21 99 29 209 60
196 53 229 107 38 61 116 110 176 110 104 -1 205 -96 205 -194 0 -21 8 -40 23
-53 46 -42 246 -173 264 -173 25 1 88 34 86 46 -1 5 -5 22 -8 37 -9 34 17 47
44 23 10 -9 23 -16 30 -16 13 0 277 -136 301 -155 8 -7 40 -20 70 -30 30 -9
69 -24 85 -32 17 -9 89 -45 160 -81 72 -36 153 -85 180 -108 28 -23 61 -45 75
-49 42 -12 157 -94 187 -133 15 -20 46 -57 69 -82 23 -25 58 -76 79 -115 20
-38 41 -74 45 -80 31 -39 98 -396 99 -525 1 -36 6 -81 11 -100 14 -47 42 -237
61 -420 6 -52 14 -122 18 -155 5 -33 13 -103 20 -155 7 -52 16 -115 21 -140 6
-25 15 -98 20 -163 6 -65 17 -160 25 -210 16 -103 39 -256 55 -363 6 -39 15
-121 20 -182 5 -60 14 -138 20 -172 6 -33 8 -70 4 -82 -6 -20 -7 -19 -30 10
-53 67 -221 262 -302 350 -47 51 -93 105 -102 120 -10 15 -27 36 -39 47 -13
11 -38 41 -57 66 l-34 47 0 343 c0 189 4 350 9 357 4 7 23 21 42 30 49 25 87
86 94 153 7 53 5 58 -26 94 -71 80 -150 105 -222 69 -73 -37 -107 -92 -107
-173 0 -56 26 -102 75 -133 19 -13 38 -32 41 -43 2 -11 3 -141 2 -290 -3 -230
-5 -270 -18 -272 -8 -2 -25 11 -38 29 -12 18 -59 71 -103 118 -45 47 -90 104
-101 127 -11 25 -31 49 -47 57 -15 8 -42 31 -60 51 l-31 36 0 387 c0 213 4
392 8 397 4 6 22 21 40 34 40 28 72 88 72 136 0 41 -28 100 -62 132 -45 43
-160 39 -212 -6 -36 -32 -59 -91 -54 -142 6 -59 27 -92 78 -124 l40 -25 0
-325 c0 -178 -3 -326 -8 -329 -8 -5 -123 115 -205 214 -68 82 -91 86 -94 15
-1 -27 -7 -80 -14 -117 -14 -76 -22 -57 86 -203 34 -47 43 -68 43 -100 l0 -40
-14 32 c-16 37 -49 63 -81 63 -12 0 -25 4 -28 10 -3 6 -12 10 -18 10 -7 0 5
-15 26 -33 37 -34 47 -60 26 -72 -6 -4 -21 2 -33 14 -14 13 -35 21 -59 21 -24
0 -39 6 -46 17 -9 17 -10 17 -28 0 -25 -22 -31 -22 -35 5 -2 12 -9 23 -17 26
-14 5 -13 -22 4 -60 5 -14 2 -18 -14 -18 -19 0 -21 6 -21 73 -1 63 -3 74 -23
88 -24 18 -77 30 -147 35 -25 2 -74 8 -110 13 -298 46 -350 48 -393 10 -12
-11 -39 -34 -60 -52 l-38 -32 -3 -87 c-1 -49 -5 -91 -8 -94 -16 -15 -30 43
-25 101 7 75 -3 93 -71 130 -53 29 -74 58 -101 138 -20 58 -6 51 -166 81 -119
22 -212 37 -285 47 -36 4 -81 11 -102 15 -32 5 -38 3 -53 -20 -17 -26 -17 -28
11 -69 16 -23 48 -62 72 -85 23 -24 63 -72 89 -105 26 -34 53 -68 60 -75 16
-16 16 -18 1 -41 -12 -20 0 -32 -274 256 -37 39 -43 42 -80 37 -51 -8 -74 -36
-102 -129 -13 -41 -27 -75 -31 -75 -15 0 -22 -97 -10 -151 6 -29 25 -71 41
-94 16 -22 64 -93 107 -158 92 -140 298 -395 393 -487 114 -110 136 -132 226
-226 99 -104 181 -175 336 -295 158 -123 180 -138 194 -139 7 0 22 -9 34 -19
17 -17 128 -92 258 -177 67 -43 146 -86 290 -156 306 -148 354 -170 455 -203
39 -12 81 -27 95 -33 55 -23 397 -121 462 -132 26 -5 56 -13 67 -19 11 -6 33
-11 49 -11 16 0 49 -7 72 -15 23 -8 62 -15 86 -15 23 0 55 -5 71 -11 15 -7 66
-15 113 -20 47 -4 144 -13 215 -20 167 -15 594 -15 755 1 69 6 166 15 215 20
50 4 103 13 118 19 16 6 48 11 71 11 24 0 60 7 79 15 20 8 50 15 67 15 17 0
40 5 51 11 11 6 41 14 67 19 47 9 232 60 367 101 96 29 286 99 350 129 478
222 571 272 785 419 52 36 109 73 127 82 18 9 58 37 90 63 32 25 94 74 138
109 72 56 117 93 149 122 128 118 196 186 217 217 14 21 43 52 65 67 77 58
248 262 462 555 110 149 148 218 157 280 6 41 -6 103 -26 131 -4 6 -18 42 -30
80 -30 94 -50 115 -110 115 -42 0 -49 -3 -75 -37 -15 -21 -37 -47 -48 -59 -12
-11 -64 -66 -117 -122 -93 -98 -97 -101 -104 -75 -3 14 -3 29 2 32 15 11 73
90 73 100 0 5 14 21 30 34 17 14 30 30 30 34 0 5 16 24 35 43 19 19 47 51 61
72 26 36 26 39 9 64 -15 23 -21 25 -53 20 -21 -4 -66 -10 -102 -15 -36 -4 -94
-13 -130 -20 -36 -7 -99 -19 -140 -27 -42 -8 -92 -14 -112 -14 -40 0 -54 -12
-63 -55 -10 -49 -47 -113 -72 -124 -13 -6 -23 -15 -23 -20 0 -5 -10 -11 -22
-15 -13 -3 -35 -17 -50 -31 -26 -24 -27 -29 -23 -100 4 -60 2 -75 -9 -75 -10
0 -16 22 -21 83 -7 80 -24 127 -47 127 -6 0 -28 16 -49 35 -34 31 -45 35 -92
35 -28 -1 -72 -5 -97 -11 -25 -5 -83 -13 -130 -19 -47 -5 -114 -14 -150 -19
-36 -6 -86 -14 -113 -17 -52 -6 -87 -34 -87 -68 0 -12 -10 -27 -22 -35 -19
-12 -20 -14 -5 -23 18 -10 23 -43 8 -52 -5 -4 -23 7 -39 24 -17 16 -38 30 -46
30 -24 0 -19 17 6 23 12 4 19 9 16 13 -12 11 -58 -6 -58 -21 0 -8 5 -15 10
-15 13 0 13 -37 1 -45 -12 -7 -78 32 -85 51 -5 12 -10 13 -28 3 -33 -18 -39
-31 -21 -51 15 -17 14 -18 -11 -18 -22 0 -26 3 -21 19 4 13 0 23 -12 29 -19
11 -26 -1 93 167 25 35 33 55 28 70 -3 11 -11 71 -18 134 -6 63 -16 116 -21
118 -19 6 -73 -41 -140 -122 -37 -44 -83 -96 -104 -116 -20 -19 -58 -63 -85
-97 -27 -35 -54 -61 -60 -59 -8 3 -12 96 -14 314 -3 345 -8 317 70 356 56 29
140 155 134 202 -10 75 -38 145 -78 190 -105 120 -258 127 -378 19 -62 -56
-80 -99 -80 -189 0 -96 19 -135 100 -206 l60 -53 1 -91 c0 -49 1 -241 2 -425
l2 -336 -38 -46 c-21 -26 -47 -50 -57 -53 -10 -3 -23 -18 -29 -33 -11 -27 -44
-66 -119 -147 -21 -22 -53 -60 -72 -85 -33 -43 -146 -173 -268 -310 -33 -36
-88 -99 -123 -140 -35 -41 -66 -77 -69 -80 -3 -3 -32 -37 -63 -77 -42 -53 -57
-80 -57 -103 0 -25 -4 -31 -17 -28 -10 2 -16 11 -14 19 2 8 8 53 12 102 4 48
10 95 13 105 3 9 8 55 11 102 3 47 8 92 11 102 6 19 48 325 74 533 5 44 14
109 20 145 14 87 31 220 31 245 1 11 5 47 9 80 22 148 31 211 50 370 39 318
55 433 90 650 5 33 12 80 15 105 9 62 41 158 67 200 12 19 32 55 44 80 22 46
126 169 179 212 46 37 150 108 158 108 4 0 31 17 60 38 29 22 72 49 97 60 25
12 68 35 95 51 28 16 56 30 64 30 8 1 28 11 45 24 35 26 112 57 142 57 11 0
24 4 30 10 26 26 349 190 375 190 13 0 19 -9 21 -36 3 -35 6 -38 60 -57 l57
-21 126 84 c70 46 133 93 141 104 8 11 14 39 14 61 1 83 81 173 164 182 24 3
61 2 81 -1 44 -9 122 -76 142 -124 17 -40 37 -49 226 -102 l148 -41 32 20
c116 75 217 72 317 -8 22 -18 32 -20 85 -11 587 91 571 87 624 163 16 24 45
56 65 70 34 26 128 57 173 57 38 0 48 36 33 122 -6 40 -15 107 -20 149 -24
228 -120 599 -225 869 -8 19 -29 76 -48 125 -163 421 -413 846 -720 1220 -244
297 -560 592 -846 790 -39 28 -95 67 -124 88 -131 96 -447 278 -612 352 -343
155 -607 244 -945 321 -323 74 -931 130 -1170 108z m148 -642 c10 -7 12 -179
10 -827 l-3 -819 -48 -23 c-41 -21 -52 -33 -79 -91 -41 -87 -46 -141 -18 -215
28 -75 56 -107 128 -145 75 -40 164 -44 227 -11 133 70 185 199 139 341 -11
35 -30 61 -72 98 -31 27 -62 50 -69 50 -7 0 -17 9 -23 19 -11 21 -15 1557 -4
1598 6 21 10 22 208 25 110 2 209 -1 219 -5 17 -8 18 -17 12 -95 -4 -48 -11
-114 -17 -147 -11 -63 -20 -134 -37 -300 -6 -55 -15 -124 -21 -154 -12 -64
-13 -151 -2 -168 4 -6 34 -16 67 -22 83 -15 87 -23 81 -156 -3 -60 -5 -121 -5
-135 1 -14 2 -299 4 -634 l4 -609 -40 -35 c-22 -20 -49 -50 -59 -68 -43 -68
-10 -197 59 -238 47 -27 145 -27 192 0 41 24 88 105 89 152 0 61 -62 149 -120
167 -11 3 -22 16 -25 28 -3 12 -4 346 -3 742 3 695 4 720 22 723 10 2 28 -1
40 -6 11 -6 55 -20 96 -33 64 -19 193 -79 355 -166 86 -46 80 -13 80 -474 0
-354 -2 -411 -15 -419 -116 -68 -141 -96 -174 -191 -36 -103 38 -258 144 -306
51 -23 185 -23 230 1 120 62 178 204 135 327 -20 57 -56 102 -110 139 l-45 31
0 345 c0 296 2 345 15 350 20 8 202 -156 241 -216 16 -24 52 -74 81 -110 88
-109 82 -69 82 -583 l-1 -457 -43 -38 c-72 -64 -92 -139 -56 -218 24 -52 73
-90 135 -104 43 -9 53 -8 101 14 62 30 93 75 102 146 9 74 -22 124 -117 190
-21 15 -22 22 -26 312 -4 291 1 355 27 346 12 -4 59 -123 86 -218 42 -147 74
-282 83 -345 5 -38 18 -137 29 -220 11 -82 23 -215 27 -295 5 -129 4 -148 -13
-176 -19 -32 -298 -294 -345 -323 -15 -10 -37 -29 -49 -44 -11 -15 -66 -66
-121 -113 -54 -48 -128 -115 -162 -150 -64 -65 -85 -75 -105 -50 -9 10 -6 29
15 82 14 38 28 80 31 94 3 14 16 49 29 78 33 71 61 321 38 338 -18 14 -88 -7
-119 -36 -18 -16 -207 -110 -222 -110 -4 0 -14 -6 -22 -14 -9 -8 -57 -35 -107
-60 -50 -25 -122 -66 -158 -91 -37 -25 -74 -45 -81 -45 -7 0 -26 -11 -42 -24
-15 -13 -53 -36 -83 -51 -30 -16 -95 -58 -145 -95 -49 -36 -103 -74 -120 -84
-16 -11 -60 -49 -96 -86 -161 -163 -213 -425 -159 -795 11 -77 20 -154 20
-171 0 -17 9 -59 20 -93 12 -34 18 -70 16 -79 -7 -21 -56 -52 -201 -127 -60
-32 -114 -62 -119 -66 -22 -19 -76 -6 -161 40 -200 106 -231 124 -249 142 -19
18 -19 20 -3 53 56 118 87 562 54 776 -30 191 -140 343 -341 470 -47 30 -128
82 -179 115 -50 33 -128 80 -172 104 -44 24 -96 53 -115 64 -19 11 -73 40
-120 64 -47 25 -110 60 -140 78 -30 18 -66 36 -80 40 -14 4 -64 27 -113 51
-90 45 -123 48 -113 10 3 -11 9 -66 13 -121 6 -95 29 -175 53 -190 6 -3 10
-18 10 -33 0 -15 14 -65 30 -112 37 -105 39 -130 6 -130 -16 0 -38 17 -71 56
-26 30 -78 80 -116 110 -38 30 -93 78 -122 107 -29 29 -75 70 -102 92 -27 22
-94 81 -148 130 -54 50 -116 103 -138 118 -21 15 -42 40 -45 54 -4 14 -3 121
1 237 5 116 7 222 6 236 -2 14 -3 66 -4 116 0 76 4 99 22 134 12 24 20 49 17
57 -6 14 15 116 39 193 8 25 23 75 34 111 12 36 21 81 21 100 0 54 16 96 54
141 20 22 43 62 53 87 22 62 96 189 160 280 61 85 68 115 26 107 -16 -2 -63
-8 -105 -11 -93 -8 -106 4 -58 54 16 18 30 39 30 47 0 16 36 37 49 29 5 -3 50
-8 100 -11 103 -7 132 1 196 51 87 68 106 79 116 64 9 -15 12 -1160 3 -1184
-4 -8 -21 -22 -40 -31 -78 -37 -130 -146 -121 -251 7 -74 24 -109 76 -161 101
-100 242 -106 354 -16 45 36 89 121 95 185 9 91 -58 217 -132 248 -23 10 -46
25 -52 32 -8 10 -11 67 -8 179 1 91 3 174 3 185 0 11 -1 230 -3 488 -4 432 -2
469 14 490 32 41 43 96 37 184 -6 109 -46 193 -129 275 -69 69 -207 139 -310
159 -83 15 -88 12 -118 -81 -43 -134 -119 -259 -227 -378 -64 -69 -69 -50 -11
39 23 35 57 93 76 129 33 64 34 67 30 165 -5 108 -32 190 -65 202 -87 29 -133
58 -164 101 -74 102 -129 207 -129 243 1 22 5 19 48 -26 66 -70 129 -118 184
-143 58 -25 159 -52 199 -52 91 0 312 -61 434 -120 109 -53 208 -137 244 -208
41 -82 64 -231 50 -329 -6 -41 -8 -77 -6 -79 3 -3 29 6 59 19 30 13 72 30 93
37 22 7 73 28 114 47 110 51 119 47 157 -62 43 -123 62 -176 100 -275 31 -83
145 -415 177 -515 36 -115 71 -204 77 -200 15 9 17 69 4 131 -12 58 -34 235
-55 444 -4 47 -12 121 -18 165 -6 44 -13 118 -16 164 -2 46 -9 100 -15 120 -8
31 -24 169 -36 316 -10 126 -38 352 -53 433 -9 48 -9 72 -1 98 10 28 9 39 -3
57 -25 38 -30 83 -12 101 15 14 55 16 343 16 180 0 333 -4 340 -8z m-2758
-720 c0 -12 -59 -65 -115 -104 -59 -40 -136 -83 -299 -167 -145 -76 -189 -105
-278 -189 -80 -76 -98 -107 -123 -216 -15 -68 -16 -90 -7 -152 14 -86 71 -213
119 -262 7 -7 13 -19 13 -25 0 -7 9 -20 20 -30 11 -9 20 -24 20 -32 0 -25 -24
-17 -42 15 -21 37 -35 38 -70 5 -28 -26 -48 -32 -48 -16 0 5 -10 11 -22 13
-23 3 -54 56 -89 148 -16 42 -17 210 -2 296 18 100 93 232 175 310 70 65 147
122 216 158 21 11 48 25 62 33 14 8 41 21 60 30 128 58 168 77 275 131 125 63
135 67 135 54z m291 -104 c1 -7 0 -17 -1 -23 -1 -5 -8 -49 -15 -97 -26 -169
-92 -320 -203 -461 -17 -23 -59 -77 -92 -119 -33 -42 -60 -80 -60 -83 0 -4
-11 -21 -24 -38 -27 -36 -71 -129 -81 -169 -4 -16 -11 -28 -16 -28 -5 0 -9 -6
-9 -14 0 -8 -13 -21 -30 -30 -37 -18 -38 -8 -5 59 14 28 25 56 25 63 0 7 9 20
20 29 11 10 20 24 20 31 0 8 9 26 21 40 11 15 45 59 75 97 181 231 241 373
236 558 l-2 78 56 59 c55 58 83 73 85 48z m129 -437 c0 -5 -11 -23 -25 -39
-14 -17 -25 -37 -25 -46 0 -10 -9 -36 -19 -59 -32 -71 -43 -145 -38 -252 5
-114 14 -161 34 -192 22 -33 8 -45 -30 -30 -32 14 -32 13 -42 -22 -6 -20 -17
-36 -25 -36 -22 0 -25 37 -4 52 14 10 15 16 6 25 -9 9 -15 8 -26 -8 -12 -16
-15 -16 -19 -4 -3 8 -10 30 -16 49 -32 101 5 233 118 419 21 34 46 71 55 81 9
10 16 21 16 26 0 8 30 45 37 45 1 0 3 -4 3 -9z m2519 -500 c54 -28 71 -59 71
-130 0 -53 -4 -65 -30 -95 -42 -47 -87 -61 -131 -42 -19 8 -49 20 -68 27 -25
9 -39 24 -53 56 -56 127 84 248 211 184z m1354 -426 c56 -43 67 -61 67 -115 0
-50 -33 -110 -73 -133 -44 -26 -113 -22 -154 9 -91 70 -90 178 5 241 63 43 97
42 155 -2z m-2953 -450 c52 -27 80 -75 80 -136 -1 -46 -5 -59 -33 -91 -35 -40
-106 -65 -150 -54 -37 9 -76 44 -98 88 -59 116 84 253 201 193z m2852 -2475
c49 -21 68 -39 92 -88 30 -59 -10 -148 -81 -177 -45 -19 -96 -19 -133 0 -34
18 -70 81 -70 124 0 46 43 122 82 142 43 23 56 23 110 -1z m-2910 -87 c24 -21
23 -64 -3 -97 -53 -68 -154 7 -114 85 13 25 21 29 57 29 25 0 49 -7 60 -17z
m4888 -1059 c0 -14 -3 -14 -15 -4 -8 7 -15 14 -15 16 0 2 7 4 15 4 8 0 15 -7
15 -16z m-6836 0 c9 -3 16 -12 16 -20 0 -8 7 -14 15 -14 8 0 15 -7 15 -15 0
-22 -8 -19 -41 14 -37 38 -39 48 -5 35z m5446 -38 c0 -2 -3 -11 -6 -20 -9 -23
-24 -20 -24 4 0 11 7 20 15 20 8 0 15 -2 15 -4z m-310 -35 c0 -14 -18 -23 -30
-16 -6 4 -8 11 -5 16 8 12 35 12 35 0z m-2135 -1112 c0 -7 -8 -15 -17 -17 -18
-3 -25 18 -11 32 10 10 28 1 28 -15z"/>
<path d="M3675 8270 c-33 -11 -98 -30 -145 -42 -74 -21 -85 -27 -85 -45 0 -16
90 -113 299 -323 165 -165 306 -300 313 -300 16 0 16 28 3 135 -6 44 -19 160
-30 259 -11 98 -25 185 -31 192 -6 8 -27 14 -46 14 -53 0 -96 24 -144 79 -24
28 -51 51 -59 50 -8 0 -42 -9 -75 -19z"/>
<path d="M9503 8241 c-47 -55 -95 -81 -146 -81 -45 0 -67 -29 -67 -85 0 -45
-23 -248 -45 -398 -15 -100 -14 -117 8 -117 7 0 148 135 312 300 205 205 300
307 300 322 0 18 -17 26 -150 64 -82 24 -154 44 -160 44 -5 0 -29 -22 -52 -49z"/>
<path d="M2339 8251 c-12 -16 -41 -44 -65 -61 -24 -17 -44 -38 -44 -47 0 -19
92 -273 118 -323 9 -19 28 -40 42 -46 14 -7 38 -18 54 -25 16 -8 49 -34 73
-58 l45 -44 176 8 177 7 42 39 c24 22 59 47 78 56 31 15 38 25 56 87 11 39 24
84 29 99 11 34 2 56 -36 86 -30 24 -64 86 -64 118 0 13 -10 29 -22 36 -23 14
-543 97 -605 97 -24 0 -38 -8 -54 -29z"/>
<path d="M10839 8276 c-2 -2 -116 -21 -254 -41 -137 -21 -260 -44 -272 -51
-13 -8 -23 -24 -23 -35 0 -31 -28 -80 -73 -126 l-40 -42 22 -78 c34 -118 39
-129 75 -145 18 -9 54 -34 80 -57 41 -35 54 -41 94 -41 26 0 104 -3 173 -7
l126 -6 51 51 c32 32 66 55 90 61 21 6 46 19 55 29 15 16 75 168 119 300 l22
64 -70 63 c-66 61 -72 64 -120 65 -28 0 -53 -2 -55 -4z"/>
<path d="M4120 8192 c0 -10 11 -130 25 -266 14 -136 25 -265 25 -285 0 -20 6
-46 14 -56 20 -28 34 -13 122 129 42 67 81 128 87 137 8 13 6 30 -6 71 -11 33
-15 66 -11 86 8 42 -1 52 -125 136 -101 68 -131 79 -131 48z"/>
<path d="M9103 8177 c-23 -18 -71 -52 -107 -77 l-66 -45 0 -59 c0 -33 -5 -75
-12 -93 -14 -38 -17 -32 93 -203 81 -126 85 -131 104 -124 17 7 19 21 35 199
26 286 29 322 36 378 7 55 6 57 -17 56 -13 0 -43 -14 -66 -32z"/>
<path d="M2055 8135 c-3 -8 -7 -21 -9 -29 -13 -42 39 -613 65 -708 14 -53 25
-54 55 -8 l28 41 -21 63 c-17 49 -19 71 -12 106 4 25 8 48 9 53 0 4 19 28 42
53 48 52 51 27 -35 252 -31 79 -63 154 -71 167 -18 28 -44 33 -51 10z"/>
<path d="M11217 8138 c-16 -13 -157 -349 -157 -376 0 -8 18 -34 40 -59 22 -25
42 -60 46 -79 8 -43 1 -110 -17 -151 -12 -29 -11 -37 10 -78 20 -41 43 -57 54
-37 21 32 85 717 73 767 -7 27 -23 32 -49 13z"/>
<path d="M3354 8029 c-3 -6 -26 -20 -49 -30 -56 -25 -61 -32 -91 -134 -23 -79
-25 -125 -5 -125 18 0 75 -71 90 -111 19 -51 40 -61 166 -78 129 -17 275 -38
345 -50 87 -14 130 -14 130 1 0 7 -120 131 -267 275 -262 257 -298 285 -319
252z"/>
<path d="M9637 7778 c-147 -145 -267 -269 -267 -275 0 -16 43 -16 130 -2 70
12 216 33 345 50 128 18 148 27 164 77 9 28 31 60 64 92 l51 49 -13 43 c-49
160 -45 152 -88 173 -23 11 -50 28 -60 38 -11 9 -28 17 -39 17 -13 0 -120 -98
-287 -262z"/>
<path d="M4580 7916 c0 -8 9 -33 19 -57 29 -65 2 -99 -64 -80 -17 4 -36 6 -42
4 -13 -5 -91 -112 -152 -210 l-33 -52 19 -31 c28 -49 50 -48 203 10 96 36 147
50 164 46 28 -7 31 -1 40 89 4 45 -1 61 -50 161 -38 79 -61 114 -79 122 -20 9
-25 9 -25 -2z"/>
<path d="M8678 7895 c-25 -14 -56 -39 -69 -56 -26 -37 -59 -188 -59 -272 0
-33 -7 -73 -15 -90 -23 -51 -53 -513 -42 -657 9 -127 20 -150 57 -130 12 6 31
9 42 7 33 -9 64 9 97 58 17 25 31 48 31 50 0 5 154 267 210 358 45 72 46 87
11 143 -12 20 -35 37 -63 47 -23 9 -88 32 -143 52 -114 41 -139 62 -124 103 6
15 15 30 21 33 6 4 67 -14 137 -38 167 -60 167 -60 197 -33 32 31 30 60 -5
112 -16 24 -50 76 -77 116 -55 84 -69 95 -112 83 -46 -14 -66 5 -57 52 4 21
11 40 16 43 11 6 12 44 2 44 -5 -1 -29 -12 -55 -25z"/>
<path d="M2595 7541 c-23 -5 -35 -17 -53 -54 l-23 -49 45 -131 c25 -73 68
-197 96 -277 69 -196 75 -214 100 -300 12 -41 26 -79 31 -85 5 -5 9 -17 9 -28
0 -25 53 -77 79 -77 13 0 66 44 142 119 133 131 126 116 100 217 -14 54 4 118
48 171 17 21 31 44 31 53 0 8 -14 55 -30 105 -17 49 -30 97 -30 106 0 23 -40
54 -88 68 -54 15 -96 52 -130 116 l-27 50 -135 1 c-74 1 -148 -1 -165 -5z"/>
<path d="M10412 7538 c-5 -7 -19 -31 -30 -53 -29 -57 -61 -83 -133 -108 -71
-25 -65 -15 -113 -178 -14 -47 -26 -92 -26 -100 0 -9 16 -36 36 -62 44 -56 57
-143 31 -196 -11 -22 -13 -39 -7 -54 14 -36 234 -247 258 -247 43 0 68 40 120
195 28 83 94 275 146 427 l96 278 -23 47 c-27 58 -34 60 -213 62 -95 1 -134
-3 -142 -11z"/>
<path d="M3259 7438 c-35 -39 -36 -55 -5 -172 37 -137 40 -142 83 -156 21 -7
58 -22 81 -33 41 -20 46 -20 70 -6 15 9 90 54 167 99 77 46 175 104 218 128
71 41 90 63 68 76 -5 4 -121 22 -258 42 -136 19 -275 39 -308 45 -84 12 -83
13 -116 -23z"/>
<path d="M4695 7455 c-11 -8 -78 -35 -150 -60 -71 -25 -140 -52 -152 -60 -23
-15 -53 -68 -53 -93 0 -14 94 -178 175 -307 17 -27 35 -57 39 -65 4 -8 12 -24
19 -35 7 -11 25 -43 41 -72 35 -63 71 -79 148 -64 16 3 24 109 22 276 -4 190
-24 461 -37 483 -10 15 -27 15 -52 -3z"/>
<path d="M9925 7460 c-27 -5 -162 -25 -299 -44 -137 -20 -253 -39 -258 -42
-20 -13 -3 -32 70 -76 262 -157 402 -238 414 -238 8 0 24 7 36 16 12 8 44 22
71 30 41 12 51 20 61 47 15 41 38 127 52 195 11 52 11 53 -22 87 -35 36 -42
38 -125 25z"/>
<path d="M2338 7373 c-64 -4 -63 -4 -123 -107 -47 -80 -61 -129 -47 -162 7
-13 12 -36 12 -49 0 -13 6 -39 14 -57 7 -18 21 -60 31 -93 51 -174 69 -197
218 -275 56 -29 118 -63 137 -75 19 -12 50 -27 68 -33 62 -21 97 21 67 81 -9
17 -25 57 -35 87 -11 30 -31 87 -45 125 -14 39 -43 120 -64 180 -21 61 -54
151 -74 200 -19 50 -40 107 -47 128 -10 31 -39 63 -52 55 -2 -1 -29 -3 -60 -5z"/>
<path d="M10943 7372 c-57 -3 -64 -6 -77 -30 -7 -15 -17 -42 -21 -59 -3 -18
-11 -35 -16 -38 -5 -4 -9 -13 -9 -22 0 -8 -6 -29 -14 -46 -7 -18 -28 -72 -45
-122 -18 -49 -39 -108 -48 -130 -16 -41 -33 -86 -57 -152 -7 -21 -27 -74 -45
-119 -38 -97 -38 -109 -6 -130 29 -19 19 -23 264 106 155 82 181 125 252 415
12 50 22 98 21 107 -2 40 -88 196 -117 212 -11 6 -48 10 -82 8z"/>
<path d="M3953 7227 c-94 -51 -402 -231 -422 -246 -14 -11 -24 -30 -25 -52 -2
-18 -7 -54 -10 -79 -7 -42 -4 -51 57 -155 35 -60 83 -144 107 -185 87 -152 95
-160 161 -174 14 -3 46 -24 71 -46 51 -45 65 -47 111 -23 18 9 140 60 272 114
l240 97 21 58 c11 33 26 68 33 80 15 23 11 32 -109 224 -29 47 -71 116 -94
153 -23 38 -49 81 -58 95 -10 15 -22 37 -27 49 -12 27 -31 33 -102 32 -54 -1
-128 25 -144 51 -16 27 -42 29 -82 7z"/>
<path d="M9280 7226 c-26 -33 -104 -60 -169 -61 l-64 0 -88 -145 c-49 -80
-115 -187 -147 -238 -90 -146 -87 -139 -64 -181 11 -20 23 -53 26 -74 8 -44
15 -48 231 -135 83 -33 188 -77 235 -97 121 -53 120 -53 174 -6 25 22 65 45
87 51 53 15 77 42 138 154 27 50 79 141 116 201 54 91 65 115 60 140 -3 17 -8
54 -11 82 l-6 53 -122 71 c-66 39 -170 100 -229 135 -110 65 -145 75 -167 50z"/>
<path d="M3136 6651 c-43 -42 -96 -93 -117 -113 -22 -21 -39 -47 -39 -59 0
-39 23 -100 41 -110 10 -5 69 -18 131 -29 62 -10 165 -29 228 -41 63 -11 141
-23 172 -26 51 -5 59 -3 82 20 14 15 26 34 26 44 0 10 -20 49 -45 86 -25 38
-45 70 -45 72 0 1 -29 49 -65 106 -36 57 -66 109 -68 114 -2 6 -50 10 -113 11
l-109 0 -79 -75z"/>
<path d="M9879 6719 c-6 -3 -16 -16 -22 -27 -7 -11 -52 -86 -102 -167 -125
-204 -116 -186 -101 -210 7 -11 26 -28 42 -37 26 -15 36 -15 104 -2 94 18 151
28 265 49 50 8 121 21 159 28 42 7 72 18 76 27 4 8 15 31 24 51 16 34 17 39 2
67 -9 17 -20 32 -25 34 -5 1 -54 46 -108 98 l-98 95 -102 1 c-57 0 -108 -3
-114 -7z"/>
<path d="M2346 6561 c-5 -8 11 -67 33 -116 5 -11 17 -40 27 -65 10 -25 31 -67
46 -93 15 -26 28 -54 28 -60 0 -7 4 -17 9 -22 5 -6 33 -57 62 -113 50 -99 90
-146 108 -126 13 14 33 74 42 124 4 25 11 58 15 73 6 24 1 35 -34 70 -42 44
-67 111 -56 154 10 37 -14 60 -118 113 -57 29 -107 56 -112 61 -13 12 -43 12
-50 0z"/>
<path d="M10820 6510 c-125 -65 -144 -82 -136 -120 9 -47 -15 -108 -60 -158
-48 -51 -49 -64 -17 -160 7 -23 15 -58 17 -77 1 -19 5 -37 8 -40 12 -12 60 8
69 29 5 11 20 39 32 61 43 75 56 100 97 189 109 236 140 324 115 332 -5 2 -62
-24 -125 -56z"/>
<path d="M4510 6393 c-8 -3 -34 -14 -57 -24 -23 -11 -47 -19 -53 -19 -5 0 -33
-11 -60 -24 -28 -14 -64 -28 -80 -31 -17 -4 -32 -11 -35 -16 -4 -5 -14 -9 -23
-9 -9 -1 -35 -9 -57 -20 -22 -11 -48 -19 -57 -20 -9 0 -19 -4 -22 -9 -3 -4
-19 -11 -35 -14 -17 -4 -38 -18 -47 -32 -23 -36 -6 -52 64 -60 31 -3 122 -14
202 -25 365 -48 319 -46 389 -15 34 16 69 38 77 49 14 21 20 139 8 170 -3 8
-27 22 -53 31 -26 8 -61 29 -79 45 -32 29 -51 34 -82 23z"/>
<path d="M8722 6375 c-17 -14 -56 -37 -88 -51 l-57 -25 7 -86 c3 -47 9 -89 12
-94 3 -5 33 -23 67 -40 52 -27 68 -30 106 -25 25 4 84 11 131 15 47 5 135 16
195 24 61 9 136 19 167 22 66 7 85 23 68 55 -11 20 -87 60 -113 60 -7 0 -29 9
-50 20 -20 11 -45 20 -55 20 -10 0 -22 4 -27 8 -6 5 -50 24 -100 42 -49 18
-116 43 -147 56 -72 30 -80 30 -116 -1z"/>
<path d="M9958 12506 c-21 -12 -40 -27 -43 -35 -6 -16 32 -61 51 -61 27 0 59
101 37 113 -5 2 -25 -6 -45 -17z"/>
<path d="M2942 12363 c-48 -23 -72 -59 -72 -105 0 -54 21 -95 79 -153 58 -58
101 -76 149 -61 126 38 100 219 -43 301 -58 33 -76 36 -113 18z"/>
<path d="M10735 11891 c-61 -32 -122 -91 -141 -139 -16 -40 -16 -45 0 -80 10
-20 29 -45 43 -56 56 -41 184 6 250 92 39 52 40 129 2 168 -37 36 -100 42
-154 15z"/>
<path d="M2250 11417 c0 -7 13 -28 30 -47 l30 -35 25 29 c14 15 24 33 22 39
-8 24 -107 36 -107 14z"/>
<path d="M1646 10651 c-26 -28 -13 -54 39 -79 56 -27 71 -28 85 -3 14 27 -6
68 -41 87 -38 19 -63 18 -83 -5z"/>
<path d="M1464 10264 c-27 -28 -34 -44 -34 -76 0 -58 35 -100 118 -139 71 -34
130 -41 170 -20 31 17 62 69 62 106 0 85 -113 165 -233 165 -44 0 -53 -4 -83
-36z"/>
<path d="M11955 9784 c-22 -7 -80 -25 -130 -40 -49 -14 -96 -31 -102 -36 -28
-22 19 -118 67 -138 65 -27 224 12 251 62 21 36 16 138 -6 154 -22 16 -27 16
-80 -2z"/>
<path d="M1135 8226 c-77 -34 -105 -121 -59 -183 26 -35 102 -63 169 -63 173
1 238 167 92 236 -59 27 -152 32 -202 10z"/>
<path d="M11948 7506 c-62 -19 -83 -47 -83 -112 0 -51 3 -59 32 -83 43 -36
117 -61 177 -61 83 0 146 54 146 125 0 28 -8 43 -39 73 -32 31 -54 41 -113 55
-40 10 -75 17 -78 16 -3 -1 -22 -6 -42 -13z"/>
<path d="M1819 5846 c-49 -13 -89 -38 -129 -81 -20 -21 -25 -37 -25 -77 0 -44
4 -53 37 -84 52 -47 110 -47 199 -1 124 64 146 169 50 234 -38 26 -64 27 -132
9z"/>
<path d="M2851 4316 c-29 -30 -24 -60 10 -64 31 -4 62 28 57 60 -4 32 -38 35
-67 4z"/>
<path d="M10345 4240 c-3 -5 -3 -19 0 -30 8 -25 58 -29 53 -4 -4 23 -44 48
-53 34z"/>
<path d="M9450 3548 c1 -18 25 -48 39 -48 8 0 11 11 9 28 -2 19 -9 28 -25 30
-14 2 -23 -2 -23 -10z"/>
<path d="M4143 3323 c-13 -4 -19 -63 -7 -63 20 0 44 24 44 45 0 24 -11 29 -37
18z"/>
<path d="M8483 3074 c-7 -19 3 -43 22 -51 22 -8 38 11 31 35 -8 25 -45 36 -53
16z"/>
<path d="M8185 3070 c-9 -15 13 -77 30 -84 9 -3 22 5 31 20 14 20 15 30 6 49
-12 26 -55 35 -67 15z"/>
<path d="M7463 2911 c-41 -35 -51 -101 -27 -184 6 -19 75 -67 97 -67 25 0 76
57 82 94 23 118 -77 220 -152 157z"/>
<path d="M6002 2858 c-15 -15 -16 -70 0 -86 15 -15 46 2 58 34 18 47 -25 85
-58 52z"/>
</g>
</svg>
